<svg id="Layer_1" data-name="Layer 1" xmlns="http://www.w3.org/2000/svg" viewBox="0 0 510.17 510.17">
  <defs>
    <style>
      .cls-1, .cls-2, .cls-3, .cls-5 {
        fill: none;
      }

      .cls-1, .cls-2, .cls-3, .cls-4, .cls-5 {
        stroke: #000;
        stroke-miterlimit: 10;
      }

      .cls-1 {
        stroke-width: 17px;
      }

      .cls-2 {
        stroke-width: 20px;
      }

      .cls-3 {
        stroke-width: 34px;
      }

      .cls-5 {
        stroke-width: 28px;
      }
    </style>
  </defs>
  <title>Logo2</title>
  <rect class="cls-1" x="1323.12" y="1172.17" width="78.58" height="78.58" transform="translate(147.12 -1566.14) rotate(45)"/>
  <rect class="cls-2" x="183.4" y="185.17" width="141.52" height="139.42"/>
  <path class="cls-3" d="M1350.27,1214.36" transform="translate(-1108.55 -957.6)"/>
  <path class="cls-3" d="M1346.43,1184.06" transform="translate(-1108.55 -957.6)"/>
  <g>
    <rect class="cls-4" x="157.26" y="89.65" width="26.38" height="92.68"/>
    <rect class="cls-4" x="1232.31" y="1083.13" width="20.42" height="98.85" transform="translate(-998.58 1417.47) rotate(-90)"/>
    <rect class="cls-4" x="1207.55" y="1140.07" width="22.97" height="93.57" transform="translate(-1590.74 252.01) rotate(-45)"/>
    <rect class="cls-4" x="1207.33" y="1189.8" width="20.13" height="98.85" transform="translate(55.62 2017.98) rotate(-133.75)"/>
    <rect class="cls-4" x="1232.03" y="1243.4" width="21.43" height="98.85" transform="translate(-1158.63 1577.97) rotate(-90)"/>
    <rect class="cls-4" x="1269.96" y="1282.11" width="22.2" height="96.28" transform="translate(1453.58 1702.9) rotate(180)"/>
    <rect class="cls-4" x="1325.1" y="1305.27" width="21.28" height="96.28" transform="translate(214.7 2297.33) rotate(-135)"/>
    <rect class="cls-4" x="1378.26" y="1305.27" width="21.28" height="96.28" transform="translate(2219.46 370.72) rotate(135)"/>
    <rect class="cls-4" x="1433.47" y="1282.11" width="21.28" height="96.28" transform="translate(1779.67 1702.9) rotate(180)"/>
    <rect class="cls-4" x="1470.97" y="1244.68" width="21.28" height="96.28" transform="translate(1665.89 -1146.38) rotate(90)"/>
    <rect class="cls-4" x="1497.03" y="1190.17" width="21.28" height="96.28" transform="translate(2338.59 68.65) rotate(134.36)"/>
    <rect class="cls-4" x="1497.03" y="1137.09" width="21.28" height="96.28" transform="translate(171.12 -1676.54) rotate(45)"/>
    <rect class="cls-4" x="325.67" y="88.56" width="21.28" height="96.28"/>
    <rect class="cls-4" x="1471.72" y="1085.23" width="21.28" height="96.28" transform="translate(-759.56 1658.14) rotate(-90)"/>
    <rect class="cls-4" x="1378.97" y="1023.59" width="21.28" height="96.28" transform="translate(114.42 -1632.83) rotate(46.91)"/>
    <rect class="cls-4" x="1324.22" y="1023.59" width="21.28" height="96.28" transform="translate(-1475.4 300.19) rotate(-45)"/>
    <g>
      <polygon class="cls-4" points="103.86 253.67 96.8 258.69 68.05 238.22 75.11 233.2 103.86 253.67"/>
      <g>
        <polygon class="cls-4" points="83.23 239.16 103.35 254.12 72.75 274.97 52.64 260.01 83.23 239.16"/>
        <polygon class="cls-4" points="41.77 253.27 60.45 266.57 91.21 244.66 72.53 231.37 41.77 253.27"/>
      </g>
      <polygon class="cls-4" points="47.37 249.29 41.32 253.79 72.35 274.94 78.4 270.44 47.37 249.29"/>
    </g>
    <g>
      <rect class="cls-4" x="1242.76" y="1071.89" width="7.11" height="28.95" transform="translate(-1511.69 241.87) rotate(-45)"/>
      <g>
        <rect class="cls-4" x="1230.3" y="1082.41" width="20.71" height="30.15" transform="translate(197.33 1795.01) rotate(-133.75)"/>
        <rect class="cls-4" x="1223.06" y="1073.9" width="18.8" height="30.97" transform="translate(225.08 1773.59) rotate(-135)"/>
      </g>
      <rect class="cls-4" x="1224.63" y="1087.25" width="6.23" height="30.58" transform="translate(-1526.25 269.31) rotate(-46.25)"/>
    </g>
    <g>
      <rect class="cls-4" x="1245.61" y="1309.76" width="7.11" height="28.95" transform="translate(-1679.05 313.56) rotate(-45)"/>
      <g>
        <rect class="cls-4" x="1233.15" y="1320.28" width="20.71" height="30.15" transform="translate(30.34 2199.43) rotate(-133.75)"/>
        <rect class="cls-4" x="1225.91" y="1311.77" width="18.8" height="30.97" transform="translate(61.75 2181.67) rotate(-135)"/>
      </g>
      <rect class="cls-4" x="1227.48" y="1325.12" width="6.23" height="30.58" transform="translate(-1697.18 344.74) rotate(-46.25)"/>
    </g>
    <g>
      <polygon class="cls-4" points="275.84 437 270.82 444.55 250.35 413.79 255.38 406.24 275.84 437"/>
      <g>
        <polygon class="cls-4" points="261.16 415.2 275.48 437.68 253.7 469.01 239.38 446.53 261.16 415.2"/>
        <polygon class="cls-4" points="231.64 436.4 244.94 456.38 266.84 423.47 253.54 403.49 231.64 436.4"/>
      </g>
      <polygon class="cls-4" points="235.63 430.43 231.33 437.19 253.42 468.97 257.72 462.21 235.63 430.43"/>
    </g>
    <g>
      <rect class="cls-4" x="1491.38" y="1309.91" width="7.11" height="28.95" transform="translate(-1607.18 487.38) rotate(-45)"/>
      <g>
        <rect class="cls-4" x="1478.91" y="1320.43" width="20.71" height="30.15" transform="translate(445.94 2377.21) rotate(-133.75)"/>
        <rect class="cls-4" x="1471.67" y="1311.92" width="18.8" height="30.97" transform="translate(481.18 2355.71) rotate(-135)"/>
      </g>
      <rect class="cls-4" x="1473.24" y="1325.27" width="6.23" height="30.58" transform="translate(-1621.49 522.31) rotate(-46.25)"/>
    </g>
    <g>
      <polygon class="cls-4" points="470 255.22 462.57 260.25 432.31 239.78 439.74 234.75 470 255.22"/>
      <g>
        <polygon class="cls-4" points="448.29 240.72 469.46 255.67 437.26 276.52 416.09 261.57 448.29 240.72"/>
        <polygon class="cls-4" points="404.65 254.83 424.31 268.12 456.69 246.22 437.03 232.92 404.65 254.83"/>
      </g>
      <polygon class="cls-4" points="410.55 250.85 404.19 255.35 436.84 276.5 443.21 272 410.55 250.85"/>
    </g>
    <g>
      <polygon class="cls-4" points="275.84 74.99 270.82 82.77 250.35 51.08 255.38 43.3 275.84 74.99"/>
      <g>
        <polygon class="cls-4" points="261.16 52.53 275.48 75.68 253.7 107.96 239.38 84.81 261.16 52.53"/>
        <polygon class="cls-4" points="231.64 74.37 244.94 94.96 266.84 61.05 253.54 40.47 231.64 74.37"/>
      </g>
      <polygon class="cls-4" points="235.63 68.22 231.33 75.18 253.42 107.92 257.72 100.96 235.63 68.22"/>
    </g>
    <g>
      <rect class="cls-4" x="1491.38" y="1071.89" width="7.11" height="28.95" transform="translate(-1438.87 417.66) rotate(-45)"/>
      <g>
        <rect class="cls-4" x="1478.91" y="1082.41" width="20.71" height="30.15" transform="translate(617.87 1974.59) rotate(-133.75)"/>
        <rect class="cls-4" x="1471.67" y="1073.9" width="18.8" height="30.97" transform="translate(649.49 1949.38) rotate(-135)"/>
      </g>
      <rect class="cls-4" x="1473.24" y="1087.25" width="6.23" height="30.58" transform="translate(-1449.56 448.89) rotate(-46.25)"/>
    </g>
  </g>
  <rect class="cls-4" x="257.53" y="230.34" width="6.87" height="46.86"/>
  <rect class="cls-4" x="240.51" y="230.34" width="6.87" height="29.77"/>
  <rect class="cls-4" x="1355.16" y="1200.4" width="11.69" height="5.25" transform="translate(1455.49 -1115.57) rotate(90)"/>
  <circle class="cls-5" cx="255.08" cy="255.08" r="241.08"/>
</svg>
